# xmcd
#
# Track frame offsets:
#	150
#	22037
#	39572
#	47447
#	76414
#	98644
#	117010
#	139457
#	157067
#	176023
#	201738
#
# Disc length: 2914 seconds
#
# Revision: 0
# Processed by: cddbd v1.4b41PL3 Copyright (c) Steve Scherf et al.
# Submitted via: EZCDDA 4.3.3.2
#
DISCID=970b600b
DTITLE=Ben Harper - The Will To Live
DYEAR=1900
DGENRE=
TTITLE0=Faded
TTITLE1=Homeless Child
TTITLE2=Number Three
TTITLE3=Roses From My Friends
TTITLE4=Jah Work
TTITLE5=I Want To Be Ready
TTITLE6=The Will To Live
TTITLE7=Ashes
TTITLE8=Widow Of A Living Man
TTITLE9=Glory And Consequences
TTITLE10=Mama's Trppin'
EXTD=
EXTT0=
EXTT1=
EXTT2=
EXTT3=
EXTT4=
EXTT5=
EXTT6=
EXTT7=
EXTT8=
EXTT9=
EXTT10=
PLAYORDER=
